<svg width="197" height="56" viewBox="0 0 197 56" fill="none" xmlns="http://www.w3.org/2000/svg">
<rect width="196" height="56" transform="translate(0.00634766)" fill="black"/>
<path d="M38.2332 35.16C37.1799 35.16 36.1599 35 35.1732 34.68C34.1999 34.3467 33.4332 33.92 32.8732 33.4L33.6132 31.84C34.1466 32.32 34.8266 32.7133 35.6532 33.02C36.4932 33.3133 37.3532 33.46 38.2332 33.46C39.3932 33.46 40.2599 33.2667 40.8332 32.88C41.4066 32.48 41.6932 31.9533 41.6932 31.3C41.6932 30.82 41.5332 30.4333 41.2132 30.14C40.9066 29.8333 40.5199 29.6 40.0532 29.44C39.5999 29.28 38.9532 29.1 38.1132 28.9C37.0599 28.6467 36.2066 28.3933 35.5532 28.14C34.9132 27.8867 34.3599 27.5 33.8932 26.98C33.4399 26.4467 33.2132 25.7333 33.2132 24.84C33.2132 24.0933 33.4066 23.42 33.7932 22.82C34.1932 22.22 34.7932 21.74 35.5932 21.38C36.3932 21.02 37.3866 20.84 38.5732 20.84C39.3999 20.84 40.2132 20.9467 41.0132 21.16C41.8132 21.3733 42.4999 21.68 43.0732 22.08L42.4132 23.68C41.8266 23.3067 41.1999 23.0267 40.5332 22.84C39.8666 22.64 39.2132 22.54 38.5732 22.54C37.4399 22.54 36.5866 22.7467 36.0132 23.16C35.4532 23.5733 35.1732 24.1067 35.1732 24.76C35.1732 25.24 35.3332 25.6333 35.6532 25.94C35.9732 26.2333 36.3666 26.4667 36.8332 26.64C37.3132 26.8 37.9599 26.9733 38.7732 27.16C39.8266 27.4133 40.6732 27.6667 41.3132 27.92C41.9532 28.1733 42.4999 28.56 42.9532 29.08C43.4199 29.6 43.6532 30.3 43.6532 31.18C43.6532 31.9133 43.4532 32.5867 43.0532 33.2C42.6532 33.8 42.0466 34.28 41.2332 34.64C40.4199 34.9867 39.4199 35.16 38.2332 35.16ZM49.1598 22.74H44.3598V21H55.9398V22.74H51.1398V35H49.1598V22.74ZM66.3349 31.5H58.8949L57.3549 35H55.2949L61.6349 21H63.6149L69.9749 35H67.8749L66.3349 31.5ZM65.6349 29.9L62.6149 23.04L59.5949 29.9H65.6349ZM81.4234 35L78.4034 30.7C78.03 30.7267 77.7367 30.74 77.5234 30.74H74.0634V35H72.0634V21H77.5234C79.3367 21 80.7634 21.4333 81.8034 22.3C82.8434 23.1667 83.3634 24.36 83.3634 25.88C83.3634 26.96 83.0967 27.88 82.5634 28.64C82.03 29.4 81.27 29.9533 80.2834 30.3L83.6034 35H81.4234ZM77.4634 29.04C78.73 29.04 79.6967 28.7667 80.3634 28.22C81.03 27.6733 81.3634 26.8933 81.3634 25.88C81.3634 24.8667 81.03 24.0933 80.3634 23.56C79.6967 23.0133 78.73 22.74 77.4634 22.74H74.0634V29.04H77.4634ZM89.1793 22.74H84.3793V21H95.9593V22.74H91.1593V35H89.1793V22.74ZM113.209 27.92H115.129V33.38C114.435 33.9533 113.629 34.3933 112.709 34.7C111.789 35.0067 110.829 35.16 109.829 35.16C108.415 35.16 107.142 34.8533 106.009 34.24C104.875 33.6133 103.982 32.76 103.329 31.68C102.689 30.5867 102.369 29.36 102.369 28C102.369 26.64 102.689 25.4133 103.329 24.32C103.982 23.2267 104.875 22.3733 106.009 21.76C107.155 21.1467 108.442 20.84 109.869 20.84C110.989 20.84 112.002 21.0267 112.909 21.4C113.829 21.76 114.609 22.2933 115.249 23L114.009 24.24C112.889 23.16 111.535 22.62 109.949 22.62C108.882 22.62 107.922 22.8533 107.069 23.32C106.229 23.7733 105.569 24.4133 105.089 25.24C104.609 26.0533 104.369 26.9733 104.369 28C104.369 29.0133 104.609 29.9333 105.089 30.76C105.569 31.5733 106.229 32.2133 107.069 32.68C107.922 33.1467 108.875 33.38 109.929 33.38C111.182 33.38 112.275 33.08 113.209 32.48V27.92ZM127.878 31.5H120.438L118.898 35H116.838L123.178 21H125.158L131.518 35H129.418L127.878 31.5ZM127.178 29.9L124.158 23.04L121.138 29.9H127.178ZM146.586 35L146.566 24.8L141.506 33.3H140.586L135.526 24.86V35H133.606V21H135.246L141.086 30.84L146.846 21H148.486L148.506 35H146.586ZM162.868 33.26V35H152.708V21H162.588V22.74H154.708V27.04H161.728V28.74H154.708V33.26H162.868Z" fill="white"/>
</svg>
