<svg width="48" height="48" viewBox="0 0 48 48" fill="none" xmlns="http://www.w3.org/2000/svg">
<path d="M43.2656 13.2938C42.6373 11.839 41.7313 10.5206 40.5984 9.41253C39.4647 8.30115 38.128 7.41796 36.6609 6.81097C35.1397 6.17906 33.5082 5.85562 31.8609 5.85941C29.55 5.85941 27.2953 6.49222 25.3359 7.68753C24.8672 7.97347 24.4219 8.28753 24 8.62972C23.5781 8.28753 23.1328 7.97347 22.6641 7.68753C20.7047 6.49222 18.45 5.85941 16.1391 5.85941C14.475 5.85941 12.8625 6.17816 11.3391 6.81097C9.86719 7.42035 8.54063 8.29691 7.40156 9.41253C6.26717 10.5194 5.36099 11.838 4.73438 13.2938C4.08281 14.8078 3.75 16.4157 3.75 18.0703C3.75 19.6313 4.06875 21.2578 4.70156 22.9125C5.23125 24.2953 5.99063 25.7297 6.96094 27.1782C8.49844 29.4703 10.6125 31.861 13.2375 34.2844C17.5875 38.3016 21.8953 41.0766 22.0781 41.1891L23.1891 41.9016C23.6813 42.2157 24.3141 42.2157 24.8063 41.9016L25.9172 41.1891C26.1 41.0719 30.4031 38.3016 34.7578 34.2844C37.3828 31.861 39.4969 29.4703 41.0344 27.1782C42.0047 25.7297 42.7688 24.2953 43.2938 22.9125C43.9266 21.2578 44.2453 19.6313 44.2453 18.0703C44.25 16.4157 43.9172 14.8078 43.2656 13.2938Z" fill="black"/>
</svg>
